#N canvas 522 420 1208 578 10;
#X obj 346 453 glsl_program;
#X obj 346 377 glsl_fragment;
#X obj 359 325 loadbang;
#X msg 359 349 open chroma_key.frag;
#X msg 45 399 value \$1 \$2 \$3;
#X msg 82 376 range \$1;
#X obj 45 24 inlet;
#X msg 487 478 tex0 \$1 \, tex1 \$2;
#X obj 346 533 square 4;
#X obj 811 26 inlet;
#X obj 711 186 pix_texture;
#X obj 726 80 loadbang;
#X obj 726 100 f \$1;
#X msg 726 164 rectangle 1 \, texunit \$1;
#X obj 991 26 inlet;
#X obj 891 186 pix_texture;
#X obj 906 80 loadbang;
#X msg 906 164 rectangle 1 \, texunit \$1;
#X obj 906 100 f \$2;
#X obj 346 270 gemframebuffer;
#X obj 346 295 translateXYZ 0 0 -4;
#X obj 781 511 outlet;
#X obj 711 56 gemhead 1;
#X obj 891 56 gemhead 1;
#X msg 421 406 link \$1;
#X msg 120 353 dimen \$1 \$2;
#X msg 158 331 format \$1;
#X obj 158 308 symbol;
#X obj 195 263 list prepend perspec;
#X obj 195 283 list trim;
#X obj 233 212 symbol;
#X msg 233 235 type \$1;
#X msg 271 185 color \$1 \$2 \$3 \$4;
#X msg 308 160 texunit \$1;
#X obj 415 502 print glsl_chroma_key_linked_ID;
#X obj 505 45 loadbang;
#X msg 505 176 rectangle 1 \, dimen \$1 \$2;
#X obj 505 67 t b b;
#X obj 505 89 f \$3;
#X obj 555 89 f \$4;
#X obj 555 109 route 0;
#X obj 505 109 route 0;
#X msg 505 131 256;
#X obj 505 154 pack;
#X msg 555 131 256;
#X obj 726 122 route 0;
#X msg 726 144 1;
#X obj 906 122 route 0;
#X msg 906 144 2;
#X obj 537 409 route 0;
#X obj 487 409 route 0;
#X obj 487 454 pack;
#X msg 487 431 1;
#X msg 537 431 2;
#X obj 487 389 f \$1;
#X obj 537 389 f \$2;
#X obj 415 478 t a b b;
#X obj 45 54 route value range dimen format perspec type color texunit
gem_state;
#N canvas 814 131 450 300 error 0;
#X obj 45 24 inlet;
#X obj 45 261 print glsl_chroma_key;
#X msg 45 237 no method for \$1;
#X obj 45 54 route list float symbol bang;
#X obj 210 83 symbol;
#X msg 45 195 symbol list;
#X msg 86 169 symbol float;
#X msg 127 135 symbol symbol;
#X msg 168 109 symbol bang;
#X connect 0 0 3 0;
#X connect 2 0 1 0;
#X connect 3 0 5 0;
#X connect 3 1 6 0;
#X connect 3 2 7 0;
#X connect 3 3 8 0;
#X connect 3 4 4 0;
#X connect 4 0 2 0;
#X connect 5 0 2 0;
#X connect 6 0 2 0;
#X connect 7 0 2 0;
#X connect 8 0 2 0;
#X restore 384 93 pd error;
#X obj 346 138 list trim;
#X obj 346 118 list prepend gem_state;
#X connect 0 0 8 0;
#X connect 0 1 56 0;
#X connect 1 0 0 0;
#X connect 1 1 24 0;
#X connect 2 0 3 0;
#X connect 3 0 1 0;
#X connect 4 0 0 0;
#X connect 5 0 0 0;
#X connect 6 0 57 0;
#X connect 7 0 0 0;
#X connect 9 0 10 1;
#X connect 11 0 12 0;
#X connect 12 0 45 0;
#X connect 13 0 10 0;
#X connect 14 0 15 1;
#X connect 16 0 18 0;
#X connect 17 0 15 0;
#X connect 18 0 47 0;
#X connect 19 0 20 0;
#X connect 19 1 21 0;
#X connect 20 0 1 0;
#X connect 22 0 10 0;
#X connect 23 0 15 0;
#X connect 24 0 0 0;
#X connect 25 0 19 0;
#X connect 26 0 19 0;
#X connect 27 0 26 0;
#X connect 28 0 29 0;
#X connect 29 0 19 0;
#X connect 30 0 31 0;
#X connect 31 0 19 0;
#X connect 32 0 19 0;
#X connect 33 0 19 0;
#X connect 35 0 37 0;
#X connect 36 0 19 0;
#X connect 37 0 38 0;
#X connect 37 1 39 0;
#X connect 38 0 41 0;
#X connect 39 0 40 0;
#X connect 40 0 44 0;
#X connect 40 1 43 1;
#X connect 41 0 42 0;
#X connect 41 1 43 0;
#X connect 42 0 43 0;
#X connect 43 0 36 0;
#X connect 44 0 43 1;
#X connect 45 0 46 0;
#X connect 45 1 13 0;
#X connect 46 0 13 0;
#X connect 47 0 48 0;
#X connect 47 1 17 0;
#X connect 48 0 17 0;
#X connect 49 0 53 0;
#X connect 49 1 51 1;
#X connect 50 0 52 0;
#X connect 50 1 51 0;
#X connect 51 0 7 0;
#X connect 52 0 51 0;
#X connect 53 0 51 1;
#X connect 54 0 50 0;
#X connect 55 0 49 0;
#X connect 56 0 34 0;
#X connect 56 1 54 0;
#X connect 56 2 55 0;
#X connect 57 0 4 0;
#X connect 57 1 5 0;
#X connect 57 2 25 0;
#X connect 57 3 27 0;
#X connect 57 4 28 0;
#X connect 57 5 30 0;
#X connect 57 6 32 0;
#X connect 57 7 33 0;
#X connect 57 8 60 0;
#X connect 57 9 58 0;
#X connect 59 0 19 0;
#X connect 60 0 59 0;
