#N canvas 559 232 711 420 10;
#X obj 18 235 cnv 15 430 100 empty empty empty 20 12 0 14 -233017 -66577
0;
#X text 49 242 Inlets:;
#X text 48 305 Outlets:;
#X obj 18 194 cnv 15 430 30 empty empty empty 20 12 0 14 -195568 -66577
0;
#X text 27 193 Arguments:;
#X obj 17 86 cnv 15 430 100 empty empty empty 20 12 0 14 -233017 -66577
0;
#X obj 459 87 cnv 15 240 300 empty empty empty 20 12 0 14 -228992 -66577
0;
#X text 463 70 Example:;
#X obj 584 318 cnv 15 100 60 empty empty empty 20 12 0 14 -195568 -66577
0;
#N canvas 0 0 450 300 gemwin 0;
#X obj 132 136 gemwin;
#X obj 67 89 outlet;
#X obj 67 10 inlet;
#X obj 67 41 route create;
#X msg 67 70 set destroy;
#X msg 142 68 set create;
#X msg 132 112 create \, 1;
#X msg 198 112 destroy;
#X connect 2 0 3 0;
#X connect 3 0 4 0;
#X connect 3 0 6 0;
#X connect 3 1 5 0;
#X connect 3 1 7 0;
#X connect 4 0 1 0;
#X connect 5 0 1 0;
#X connect 6 0 0 0;
#X connect 7 0 0 0;
#X restore 589 357 pd gemwin;
#X msg 589 338 create;
#X text 585 317 Create window:;
#X obj 466 148 cnv 15 160 80 empty empty empty 20 12 0 14 -24198 -66577
0;
#X obj 467 94 gemhead;
#X obj 526 95 bng 15 250 50 0 empty empty pix_load 20 8 0 8 -262144
-1 -1;
#N canvas 118 378 587 366 image 0;
#X obj 77 48 inlet;
#X obj 77 344 outlet;
#X obj 77 205 pix_image examples/data/fractal.JPG;
#X obj 223 55 inlet;
#X msg 223 123 open \$1;
#X obj 223 100 openpanel;
#X connect 0 0 2 0;
#X connect 2 0 1 0;
#X connect 3 0 5 0;
#X connect 4 0 2 0;
#X connect 5 0 4 0;
#X restore 467 123 pd image;
#X text 73 204 <none>;
#X text 66 318 Outlet 1: gemlist;
#X text 73 256 Inlet 1: gemlist;
#X text 532 115 open an image;
#X text 525 128 (JPEG \, TIFF \, ..);
#X text 39 86 Description: change contrast and saturation of an image
;
#X floatatom 510 158 5 0 10 1 contrast - -;
#X floatatom 554 183 5 0 0 0 saturation - -;
#X text 31 151 A contrast (or saturation) of "1" will not change the
image. Both contrast and saturation modifiers must be >=0!;
#X text 73 271 Inlet 2: float: contrast (>=0.f default=1.f);
#X text 73 284 Inlet 3: float: saturation (>=0.f default=1.f);
#X text 60 22 Synopsis: [glsl_contrast];
#X text 81 41 GLSL abstraction;
#X text 462 18 GEM abstraction;
#X text 27 107 [glsl_contrast] will modify the contrast and saturation
of an image. When processing greyscale images \, only the contrast
can be modified (since there is no hue);
#X obj 466 237 pix_texture;
#X obj 466 267 square 3;
#X text 70 395 see also :;
#X obj 18 346 cnv 15 430 40 empty empty empty 20 12 0 14 -260818 -66577
0;
#X text 26 344 WARNING: if you get this warning in the pd console \,
then you can't use this GLSL abstraction : warning: "extension `GL_EXT_gpu_shader4'
unsupported in fragment shader";
#X obj 140 395 pix_contrast;
#X obj 467 206 glsl_contrast 1;
#X connect 9 0 10 0;
#X connect 10 0 9 0;
#X connect 13 0 15 0;
#X connect 14 0 15 1;
#X connect 15 0 37 0;
#X connect 22 0 37 1;
#X connect 23 0 37 2;
#X connect 31 0 32 0;
#X connect 37 0 31 0;
